<?xml version="1.0"?>
<svg xmlns="http://www.w3.org/2000/svg" height="512px" viewBox="0 0 58 58" width="512px" class=""><g><g id="Page-1" fill="none" fill-rule="evenodd"><g id="019---Voicemail" fill="rgb(0,0,0)" fill-rule="nonzero" transform="translate(-1)"><path id="Shape" d="m25.017 33.983c-5.536-5.536-6.786-11.072-7.068-13.29-.0787994-.6132828.1322481-1.2283144.571-1.664l4.48-4.478c.6590136-.6586066.7759629-1.685024.282-2.475l-7.133-11.076c-.5464837-.87475134-1.6685624-1.19045777-2.591-.729l-11.451 5.393c-.74594117.367308-1.18469338 1.15985405-1.1 1.987.6 5.7 3.085 19.712 16.855 33.483s27.78 16.255 33.483 16.855c.827146.0846934 1.619692-.3540588 1.987-1.1l5.393-11.451c.4597307-.9204474.146114-2.0395184-.725-2.587l-11.076-7.131c-.7895259-.4944789-1.8158967-.3783642-2.475.28l-4.478 4.48c-.4356856.4387519-1.0507172.6497994-1.664.571-2.218-.282-7.754-1.532-13.29-7.068z" data-original="#000000" class="active-path" data-old_color="#000000" fill="#DC143C"/><path id="Shape" d="m44 0c-8.284 0-15 5.82-15 13 .013526 2.634447.9115483 5.1879998 2.55 7.251l-1.55 7.749 7.864-3.146c1.9564312.75969 4.0372512 1.1483177 6.136 1.146 8.284 0 15-5.82 15-13s-6.716-13-15-13zm-8 15c-1.1045695 0-2-.8954305-2-2s.8954305-2 2-2 2 .8954305 2 2-.8954305 2-2 2zm8 0c-1.1045695 0-2-.8954305-2-2s.8954305-2 2-2 2 .8954305 2 2-.8954305 2-2 2zm8 0c-1.1045695 0-2-.8954305-2-2s.8954305-2 2-2 2 .8954305 2 2-.8954305 2-2 2z" data-original="#000000" class="active-path" data-old_color="#000000" fill="#DC143C"/></g></g></g> </svg>
