<?xml version="1.0"?>
<svg xmlns="http://www.w3.org/2000/svg" id="Capa_1" enable-background="new 0 0 512 512" height="512px" viewBox="0 0 512 512" width="512px" class=""><g><g><path d="m196 97.5h30v90h-30z" fill="#ffba48" data-original="#FFBA48" class="" style="fill:#DC143C" data-old_color="#ffba48"/><path d="m286 97.5h30v90h-30z" fill="#ff9a42" data-original="#FF9A42" class="" style="fill:#DC143C" data-old_color="#ff9a42"/><path d="m181 7.5h-60v45l90 45z" fill="#ff3a2f" data-original="#FF3A2F" class="" style="fill:#DC143C" data-old_color="#ff3a2f"/><path d="m391 7.5h-30l-40 45 40 15 30-15z" fill="#db2116" data-original="#DB2116" class="" style="fill:#DC143C" data-old_color="#db2116"/><path d="m331 7.5-30 90 60-30v-60z" fill="#ff3a2f" data-original="#FF3A2F" class="" style="fill:#DC143C" data-old_color="#ff3a2f"/><path d="m301 7.5-45 20-45-20h-30v90h150v-90z" fill="#fff" data-original="#FFF" class=""/><path d="m211 7.5h90v90h-90z" fill="#4271db" data-original="#4271DB" class="" style="fill:#000000" data-old_color="#4271db"/><path d="m331 82.5h-30v30h30c8.284 0 15-6.716 15-15s-6.716-15-15-15z" fill="#ff9a42" data-original="#FF9A42" class="" style="fill:#DC143C" data-old_color="#ff9a42"/><path d="m316 97.5c0-8.284-6.716-15-15-15h-120c-8.284 0-15 6.716-15 15s6.716 15 15 15h120c8.284 0 15-6.716 15-15z" fill="#ffba48" data-original="#FFBA48" class="" style="fill:#DC143C" data-old_color="#ffba48"/><circle cx="256" cy="323.5" fill="#ff9a42" r="181" data-original="#FF9A42" class="" style="fill:#DC143C" data-old_color="#ff9a42"/><circle cx="256" cy="323.5" fill="#ffba48" r="151" data-original="#FFBA48" class="" style="fill:#DC143C" data-old_color="#ffba48"/><path d="m256 202.5v242c66.826 0 121-54.174 121-121s-54.174-121-121-121z" fill="#ff7a3c" data-original="#FF7A3C" class="active-path" style="fill:#DC143C" data-old_color="#ff7a3c"/><path d="m347 323.5c0-66.826-40.742-121-91-121-66.826 0-121 54.174-121 121s54.174 121 121 121c50.258 0 91-54.174 91-121z" fill="#ff9a42" data-original="#FF9A42" class="" style="fill:#DC143C" data-old_color="#ff9a42"/><circle cx="256" cy="414.5" r="7.5" data-original="#000000" class="" style="fill:#140B0B" data-old_color="#000000"/><path d="m305.25 408.803c3.587-2.071 4.816-6.658 2.745-10.245s-6.658-4.816-10.245-2.745-4.816 6.658-2.745 10.245c2.071 3.588 6.658 4.817 10.245 2.745z" data-original="#000000" class="" style="fill:#140B0B" data-old_color="#000000"/><path d="m331.058 375.495c3.587 2.071 8.174.842 10.245-2.745s.842-8.174-2.745-10.245-8.174-.842-10.245 2.745-.842 8.174 2.745 10.245z" data-original="#000000" class="" style="fill:#140B0B" data-old_color="#000000"/><circle cx="347" cy="323.5" r="7.5" data-original="#000000" class="" style="fill:#140B0B" data-old_color="#000000"/><circle cx="165" cy="323.5" r="7.5" data-original="#000000" class="" style="fill:#140B0B" data-old_color="#000000"/><path d="m170.697 372.75c2.071 3.587 6.658 4.816 10.245 2.745s4.816-6.658 2.745-10.245-6.658-4.816-10.245-2.745c-3.588 2.071-4.817 6.658-2.745 10.245z" data-original="#000000" class="" style="fill:#140B0B" data-old_color="#000000"/><path d="m206.75 408.803c3.587 2.071 8.174.842 10.245-2.745s.842-8.174-2.745-10.245-8.174-.842-10.245 2.745c-2.071 3.588-.842 8.174 2.745 10.245z" data-original="#000000" class="" style="fill:#140B0B" data-old_color="#000000"/><path d="m256 452c70.855 0 128.5-57.645 128.5-128.5s-57.645-128.5-128.5-128.5-128.5 57.645-128.5 128.5 57.645 128.5 128.5 128.5zm0-242c62.584 0 113.5 50.916 113.5 113.5s-50.916 113.5-113.5 113.5-113.5-50.916-113.5-113.5 50.916-113.5 113.5-113.5z" data-original="#000000" class="" style="fill:#140B0B" data-old_color="#000000"/><path d="m256 165c-36.527 0-72.18 12.731-100.392 35.848-3.203 2.625-3.673 7.351-1.047 10.555 2.625 3.205 7.352 3.673 10.555 1.048 25.537-20.927 57.814-32.451 90.884-32.451 79.126 0 143.5 64.374 143.5 143.5s-64.374 143.5-143.5 143.5-143.5-64.374-143.5-143.5c0-33.071 11.524-65.348 32.45-90.885 2.626-3.204 2.157-7.929-1.047-10.555-3.203-2.625-7.93-2.157-10.555 1.048-23.117 28.211-35.848 63.864-35.848 100.392 0 87.397 71.103 158.5 158.5 158.5s158.5-71.103 158.5-158.5-71.103-158.5-158.5-158.5z" data-original="#000000" class="" style="fill:#140B0B" data-old_color="#000000"/><path d="m323.5 147.506v-27.506h7.5c12.406 0 22.5-10.093 22.5-22.5 0-5.755-2.175-11.011-5.742-14.994l46.597-23.298c2.54-1.27 4.146-3.867 4.146-6.708v-45c0-4.142-3.357-7.5-7.5-7.5h-270.001c-4.143 0-7.5 3.358-7.5 7.5v45c0 2.841 1.605 5.438 4.146 6.708l46.597 23.298c-3.567 3.983-5.742 9.238-5.742 14.994 0 12.407 10.094 22.5 22.5 22.5h7.5v27.506c-70.695 27.206-121 95.831-121 175.994-.001 103.939 84.56 188.5 188.499 188.5s188.5-84.561 188.5-188.5c0-80.164-50.305-148.788-121-175.994zm-15-5.058c-4.921-1.429-9.923-2.667-15-3.696v-18.752h15zm-30-22.448v16.348c-7.38-.882-14.886-1.348-22.5-1.348s-15.12.466-22.5 1.348v-16.348zm-90-105h15v60h-15zm30 0h75v60h-75zm90 0h15v60h-15zm75 32.865-45 22.5v-55.365h45zm-255-32.865h45v55.365l-45-22.5zm45 82.5c0-4.136 3.364-7.5 7.5-7.5h150c4.136 0 7.5 3.364 7.5 7.5s-3.364 7.5-7.5 7.5h-150c-4.136 0-7.5-3.364-7.5-7.5zm30 22.5h15v18.752c-5.077 1.029-10.079 2.267-15 3.696zm52.5 377c-95.668 0-173.5-77.832-173.5-173.5s77.832-173.5 173.5-173.5 173.5 77.832 173.5 173.5-77.832 173.5-173.5 173.5z" data-original="#000000" class="" style="fill:#140B0B" data-old_color="#000000"/></g></g> </svg>
