<?xml version="1.0"?>
<svg xmlns="http://www.w3.org/2000/svg" id="Filled_stroke_cutting_expand" height="512px" viewBox="0 0 512 512" width="512px" data-name="Filled stroke cutting expand" class=""><g><g><path d="m64 488v-107.478a30 30 0 0 1 19.127-27.96l124.873-48.562h96l124.873 48.562a30 30 0 0 1 19.127 27.96v107.478z" fill="#666" data-original="#666"/><path d="m368 326.691c0 27.13-65.589 49.123-111.968 49.123s-111.968-21.993-111.968-49.123 65.589-78.6 111.968-78.6 111.968 51.471 111.968 78.6z" fill="#4d4d4d" data-original="#4D4D4D"/><path d="m288.036 336h-64.072a20 20 0 0 1 -19.677-23.578l11.713-64.422h80l11.713 64.422a20 20 0 0 1 -19.677 23.578z" fill="#ffd4cf" data-original="#FFD4CF" class=""/><path d="m296 248h-80l-3.874 21.309 11.911 10.122a36.034 36.034 0 0 0 23.314 8.569h17.249a36.022 36.022 0 0 0 23.428-8.667l11.826-10.133z" fill="#fbb8b0" data-original="#FBB8B0"/><g fill="#ffd4cf"><path d="m328 104h-144v111.159a20 20 0 0 0 7.048 15.24l43.352 36.841a20 20 0 0 0 12.951 4.76h17.249a20 20 0 0 0 13.015-4.815l43.4-37.2a20 20 0 0 0 6.985-15.185z" data-original="#FFD4CF" class=""/><path d="m152 136h22a10 10 0 0 1 10 10v28a10 10 0 0 1 -10 10h-22a0 0 0 0 1 0 0v-48a0 0 0 0 1 0 0z" transform="matrix(-1 0 0 -1 336 320)" data-original="#FFD4CF" class=""/><path d="m338 136h22a0 0 0 0 1 0 0v48a0 0 0 0 1 0 0h-22a10 10 0 0 1 -10-10v-28a10 10 0 0 1 10-10z" transform="matrix(-1 0 0 -1 688 320)" data-original="#FFD4CF" class=""/></g><path d="m188 112h28l24-24v24h32l24-24v24h30a10 10 0 0 0 10-10v-38a40 40 0 0 0 -40-40h-128v68a20 20 0 0 0 20 20z" fill="#2471d6" data-original="#2471D6" class="active-path" data-old_color="#2471d6" style="fill:#252A30"/><g><path d="m431.773 345.106-55.994-21.776c-1.55-12.06-10.985-24.34-19.009-32.827l-11.626 10.997c9.3 9.837 14.856 19.255 14.856 25.194 0 8.552-12.862 19.016-33.567 27.309-21.275 8.521-48.251 13.814-70.4 13.814s-49.133-5.296-70.404-13.817c-20.7-8.293-33.567-18.757-33.567-27.309 0-11.693 21.479-36.317 51.225-53.493l-6.871 37.793a28 28 0 0 0 27.548 33.009h64.072a28 28 0 0 0 27.548-33.009l-6.862-37.742a177.542 177.542 0 0 1 22.258 15.265l10.041-12.457a192.671 192.671 0 0 0 -35.208-22.5l20.409-17.493a27.968 27.968 0 0 0 9.778-21.264v-22.8h14a18.021 18.021 0 0 0 18-18v-28a18.021 18.021 0 0 0 -18-18h-14v-11.04a18 18 0 0 0 8-14.96v-38a48.055 48.055 0 0 0 -48-48h-128a8 8 0 0 0 -8 8v32h16v-24h120a32.036 32.036 0 0 1 32 32v38a2 2 0 0 1 -2 2h-22v-16a8 8 0 0 0 -13.657-5.657l-21.656 21.657h-20.687v-16a8 8 0 0 0 -13.657-5.657l-21.656 21.657h-24.687a12.013 12.013 0 0 1 -12-12v-20h-16v20a28.035 28.035 0 0 0 16 25.3v10.7h-14a18.021 18.021 0 0 0 -18 18v28a18.021 18.021 0 0 0 18 18h14v23.159a27.956 27.956 0 0 0 9.868 21.336l20.207 17.173c-33.436 16.595-66.729 46.389-69.784 69.635l-56.064 21.8a37.764 37.764 0 0 0 -24.227 35.419v27.478h16v-27.478a21.863 21.863 0 0 1 14.026-20.5l53.255-20.71c5.832 11.124 19.511 21.178 40.4 29.545q2.125.851 4.32 1.662v45.481h-8v16h8v8h16v-8h8v-16h-8v-40.335c18.519 5.15 38.635 8.149 56.031 8.149 17.376 0 37.467-2.992 55.969-8.132v40.318h-8v16h8v8h16v-8h8v-16h-8v-45.462q2.225-.822 4.382-1.685c20.876-8.362 34.551-18.409 40.389-29.525l53.2 20.69a21.863 21.863 0 0 1 14.028 20.504v99.478h-48v-56h-16v56h-240v-56h-16v56h-48v-56h-16v64a8 8 0 0 0 8 8h384a8 8 0 0 0 8-8v-107.478a37.764 37.764 0 0 0 -24.227-35.416zm-134.524-21.417a11.969 11.969 0 0 1 -9.213 4.311h-64.072a12 12 0 0 1 -11.806-14.146l8.664-47.654 8.4 7.135a28.025 28.025 0 0 0 18.129 6.665h17.249a28.019 28.019 0 0 0 18.222-6.741l8.338-7.147 8.68 47.742a11.971 11.971 0 0 1 -2.591 9.835zm52.751-179.689a2 2 0 0 1 2 2v28a2 2 0 0 1 -2 2h-14v-32zm-188 32a2 2 0 0 1 -2-2v-28a2 2 0 0 1 2-2h14v32zm30 39.159v-95.159h24a8 8 0 0 0 5.657-2.343l10.343-10.344v4.687a8 8 0 0 0 8 8h32a8 8 0 0 0 5.657-2.343l10.343-10.344v4.687a8 8 0 0 0 8 8h24v94.8a11.982 11.982 0 0 1 -4.191 9.111l-43.4 37.2a12.008 12.008 0 0 1 -7.809 2.889h-17.249a12.009 12.009 0 0 1 -7.771-2.856l-43.351-36.844a11.979 11.979 0 0 1 -4.229-9.141z" data-original="#000000" class=""/><path d="m280 144h16v24h-16z" data-original="#000000" class=""/><path d="m216 144h16v24h-16z" data-original="#000000" class=""/><path d="m264 232a24 24 0 0 0 24-24h-64a24 24 0 0 0 24 24z" data-original="#000000" class=""/></g></g></g> </svg>
